SplineFontDB: 3.0
FontName: Untitled
FullName: Untitled
FamilyName: Untitled
Weight: Regular
StyleMapFamilyName: 
ItalicAngle: 0
UnderlinePosition: 0
UnderlineWidth: 0
Ascent: 800
Descent: 200
InvalidEm: 1
LayerCount: 2
Layer: 0 0 "Back" 1
Layer: 1 0 "public.default" 0 "glyphs"
StyleMap: 0x0000
FSType: 0
OS2Version: 0
OS2_WeightWidthSlopeOnly: 0
OS2_UseTypoMetrics: 0
CreationTime: 1738338692
ModificationTime: 1738339174
PfmFamily: 16
TTFWeight: 400
TTFWidth: 5
LineGap: 0
VLineGap: 0
OS2TypoAscent: 0
OS2TypoAOffset: 1
OS2TypoDescent: 0
OS2TypoDOffset: 1
OS2TypoLinegap: 0
OS2WinAscent: 0
OS2WinAOffset: 1
OS2WinDescent: 0
OS2WinDOffset: 1
HheadAscent: 0
HheadAOffset: 1
HheadDescent: 0
HheadDOffset: 1
DEI: 91125
Encoding: ISO8859-1
Compacted: 1
UnicodeInterp: none
NameList: AGL For New Fonts
DisplaySize: -128
AntiAlias: 0
FitToEm: 0
WinInfo: 20 10 4
BeginChars: 280 52

StartChar: A
Encoding: 65 65 0
GlifName: A_
Width: 914
VWidth: 0
Flags: W
LayerCount: 2
Fore
SplineSet
579 80 m 257
 580 -7 l 257
 836 -5 l 257
 836 82 l 257
 838 152 l 257
 754 82 l 257
 717 82 l 257
 531 721 l 257
 879 721 l 257
 944 820 l 257
 35 820 l 257
 -30 721 l 257
 389 721 l 257
 184 82 l 257
 147 82 l 257
 63 152 l 257
 65 82 l 257
 65 -5 l 257
 254 -7 l 257
 255 80 l 257
 321 288 l 257
 518.968811035 288 l 257
 579 80 l 257
421 596 m 257
 501.363494873 349 l 257
 341 349 l 257
 421 596 l 257
EndSplineSet
PickledDataWithLists: "(dp0
Vxyz.fontra.layer-names
p1
(dp2
Vholihai_default/public.default
p3
Vdefault
p4
ss."
EndChar

StartChar: B
Encoding: 66 66 5
GlifName: B_
Width: 814
VWidth: 0
Flags: W
LayerCount: 2
Fore
SplineSet
193 80 m 257
 147 82 l 257
 63 152 l 257
 65 82 l 257
 65 -5 l 257
 194 -7 l 257
 450 -5 l 257
 480 -1 l 257
 482 -1 515 1 531 1 c 256
 662 1 755 128 755 228 c 256
 755 328 525 407 517 409 c 256
 466 422 458 413 496 413 c 256
 501 413 692 493 692 584 c 256
 692 652.840759277 638.758789062 701.789245605 563.602539062 721 c 257
 779 721 l 257
 844 820 l 257
 35 820 l 257
 -30 721 l 257
 194 721 l 257
 193 80 l 257
559 583.5 m 256
 559 508.113131652 502 425 431 434 c 256
 357 444 298 421 300 434 c 256
 305 465 308 685 310 713 c 256
 311 723 367 724 409 724 c 257
 481 724 559 658.886868348 559 583.5 c 256
619 208 m 256
 619 110.797884035 550 46 461 46 c 256
 408 46 349 33 320 77 c 256
 300 106 297 169 297 208 c 256
 297 254 283 340 310 371 c 256
 339 406 420 371 467 371 c 256
 555 371 619 305.202115965 619 208 c 256
EndSplineSet
PickledDataWithLists: "(dp0
Vxyz.fontra.layer-names
p1
(dp2
Vholihai_default/public.default
p3
Vdefault
p4
ss."
EndChar

StartChar: C
Encoding: 67 67 10
GlifName: C_
Width: 823
VWidth: 0
Flags: W
LayerCount: 2
Fore
SplineSet
727 207 m 257
 672 115 568 35 484 35 c 256
 357 35 164 198 164 370 c 256
 164 542 359 708 486 708 c 256
 558 708 654 661 706 581 c 257
 696 713 l 257
 691.484069824 715.75189209 686.928283691 718.419128418 682.336914062 721 c 257
 778 721 l 257
 843 820 l 257
 35 820 l 257
 -30 721 l 257
 292.725921631 721 l 257
 155.199401855 651.893737793 33 522.640869141 33 378 c 256
 33 164 303 -4 492 -4 c 256
 570 -4 637 -1 726 3 c 257
 727 207 l 257
EndSplineSet
PickledDataWithLists: "(dp0
Vxyz.fontra.layer-names
p1
(dp2
Vholihai_default/public.default
p3
Vdefault
p4
ss."
EndChar

StartChar: D
Encoding: 68 68 15
GlifName: D_
Width: 914
VWidth: 0
Flags: W
LayerCount: 2
Fore
SplineSet
193 80 m 257
 147 82 l 257
 63 152 l 257
 65 82 l 257
 65 -5 l 257
 194 -7 l 257
 433 4 l 257
 437.901783526 1.24274676641 555.408510601 13.7173252146 559 15 c 256
 640 45 806 175 806 373 c 256
 806 532 721.734924316 673.904541016 623.446105957 721 c 257
 879 721 l 257
 944 820 l 257
 35 820 l 257
 -30 721 l 257
 194 721 l 257
 193 80 l 257
686 393.5 m 256
 686 209.865320692 589.293505957 61 470 61 c 256
 423 61 381 43 346 81 c 256
 274.095352032 159.441434147 271.342284599 610.540449367 328 700 c 256
 367 762 410 726 470 726 c 256
 589.293505957 726 686 577.134679308 686 393.5 c 256
EndSplineSet
PickledDataWithLists: "(dp0
Vxyz.fontra.layer-names
p1
(dp2
Vholihai_default/public.default
p3
Vdefault
p4
ss."
EndChar

StartChar: E
Encoding: 69 69 20
GlifName: E_
Width: 739
VWidth: 0
Flags: W
LayerCount: 2
Fore
SplineSet
193 80 m 257
 147 82 l 257
 63 152 l 257
 65 82 l 257
 65 -5 l 257
 194 -7 l 257
 675 -5 l 257
 675 82 l 257
 677 152 l 257
 593 82 l 257
 331 82 l 257
 332 320 l 257
 331.962585449 335 l 257
 499 335 l 257
 499 422 l 257
 501 492 l 257
 392 422 l 257
 331.745635986 422 l 257
 331 721 l 257
 704 721 l 257
 769 820 l 257
 35 820 l 257
 -30 721 l 257
 194 721 l 257
 193 80 l 257
EndSplineSet
PickledDataWithLists: "(dp0
Vxyz.fontra.layer-names
p1
(dp2
Vholihai_default/public.default
p3
Vdefault
p4
ss."
EndChar

StartChar: F
Encoding: 70 70 25
GlifName: F_
Width: 815
VWidth: 0
Flags: W
LayerCount: 2
Fore
SplineSet
193 80 m 257
 147 82 l 257
 63 152 l 257
 65 82 l 257
 65 -5 l 257
 333 -10 l 257
 331 82 l 257
 332 320 l 257
 331.962585449 335 l 257
 551 335 l 257
 551 422 l 257
 553 492 l 257
 468 422 l 257
 331.745635986 422 l 257
 331 721 l 257
 780 721 l 257
 845 820 l 257
 35 820 l 257
 -30 721 l 257
 194 721 l 257
 193 80 l 257
EndSplineSet
PickledDataWithLists: "(dp0
Vxyz.fontra.layer-names
p1
(dp2
Vholihai_default/public.default
p3
Vdefault
p4
ss."
EndChar

StartChar: G
Encoding: 71 71 30
GlifName: G_
Width: 952
VWidth: 0
Flags: W
LayerCount: 2
Fore
SplineSet
727 207 m 257
 726 314 l 257
 676 315 l 257
 592 385 l 257
 594 315 l 257
 594 228 l 257
 672 226.79069519 l 257
 672 135.296203613 l 257
 616.361206055 77.0786743164 544.920776367 35 484 35 c 256
 357 35 164 198 164 370 c 256
 164 542 359 708 486 708 c 256
 558 708 654 661 706 581 c 257
 696 713 l 257
 691.484069824 715.75189209 686.928283691 718.419128418 682.336914062 721 c 257
 917 721 l 257
 982 820 l 257
 35 820 l 257
 -30 721 l 257
 292.725921631 721 l 257
 155.199401855 651.893737793 33 522.640869141 33 378 c 256
 33 164 303 -4 492 -4 c 256
 568.954406738 -4 651.748962402 25.2010688782 722.137695312 74 c 257
 727 74 l 257
 727 207 l 257
EndSplineSet
PickledDataWithLists: "(dp0
Vxyz.fontra.layer-names
p1
(dp2
Vholihai_default/public.default
p3
Vdefault
p4
ss."
EndChar

StartChar: H
Encoding: 72 72 31
GlifName: H_
Width: 942
VWidth: 0
Flags: W
LayerCount: 2
Fore
SplineSet
42 820 m 257
 -23 721 l 257
 135 721 l 257
 135 82 l 257
 99.8028182983 82 l 257
 16 152 l 257
 18 82 l 257
 18 -5 l 257
 272 -5 l 257
 272 367 l 257
 652 367 l 257
 652 -5 l 257
 908 -5 l 257
 908 82 l 257
 910 152 l 257
 826.19720459 82 l 257
 789 82 l 257
 789 721 l 257
 897 721 l 257
 962 820 l 257
 559 820 l 257
 494 721 l 257
 652 721 l 257
 652 429 l 257
 272 429 l 257
 272 721 l 257
 380 721 l 257
 445 820 l 257
 42 820 l 257
EndSplineSet
PickledDataWithLists: "(dp0
Vxyz.fontra.layer-names
p1
(dp2
Vholihai_default/public.default
p3
Vdefault
p4
ss."
EndChar

StartChar: I
Encoding: 73 73 32
GlifName: I_
Width: 534
VWidth: 0
Flags: W
LayerCount: 2
Fore
SplineSet
203 80 m 257
 157 82 l 257
 73 152 l 257
 75 82 l 257
 75 -5 l 257
 204 -7 l 257
 460 -5 l 257
 460 82 l 257
 462 152 l 257
 378.19720459 82 l 257
 341 82 l 257
 341 721 l 257
 489 721 l 257
 554 820 l 257
 45 820 l 257
 -20 721 l 257
 204 721 l 257
 203 80 l 257
EndSplineSet
PickledDataWithLists: "(dp0
Vxyz.fontra.layer-names
p1
(dp2
Vholihai_default/public.default
p3
Vdefault
p4
ss."
EndChar

StartChar: J
Encoding: 74 74 33
GlifName: J_
Width: 534
VWidth: 0
Flags: W
LayerCount: 2
Fore
SplineSet
297 75 m 257
 167 82 l 257
 73 152 l 257
 75 82 l 257
 75 -5 l 257
 306 -65 l 257
 443 -6 l 257
 435 721 l 257
 489 721 l 257
 554 820 l 257
 45 820 l 257
 -20 721 l 257
 298 721 l 257
 297 75 l 257
EndSplineSet
PickledDataWithLists: "(dp0
Vxyz.fontra.layer-names
p1
(dp2
Vholihai_default/public.default
p3
Vdefault
p4
ss."
EndChar

StartChar: K
Encoding: 75 75 34
GlifName: K_
Width: 942
VWidth: 0
Flags: W
LayerCount: 2
Fore
SplineSet
42 820 m 257
 -23 721 l 257
 135 721 l 257
 135 82 l 257
 99.8028182983 82 l 257
 16 152 l 257
 18 82 l 257
 18 -5 l 257
 272 -5 l 257
 272 367 l 257
 281 367 l 257
 652 -5 l 257
 826 -5 l 257
 826 82 l 257
 828 152 l 257
 744 82 l 257
 703 82 l 257
 418 410 l 257
 789 721 l 257
 897 721 l 257
 962 820 l 257
 559 820 l 257
 494 721 l 257
 652 721 l 257
 281 429 l 257
 272 429 l 257
 272 721 l 257
 380 721 l 257
 445 820 l 257
 42 820 l 257
EndSplineSet
PickledDataWithLists: "(dp0
Vxyz.fontra.layer-names
p1
(dp2
Vholihai_default/public.default
p3
Vdefault
p4
ss."
EndChar

StartChar: L
Encoding: 76 76 35
GlifName: L_
Width: 626
VWidth: 0
Flags: W
LayerCount: 2
Fore
SplineSet
138 367 m 257
 138 -5 l 257
 604 -5 l 257
 604 82 l 257
 606 152 l 257
 522 82 l 257
 275 82 l 257
 275 721 l 257
 383 721 l 257
 448 820 l 257
 45 820 l 257
 -20 721 l 257
 138 721 l 257
 138 367 l 257
EndSplineSet
PickledDataWithLists: "(dp0
Vxyz.fontra.layer-names
p1
(dp2
Vholihai_default/public.default
p3
Vdefault
p4
ss."
EndChar

StartChar: M
Encoding: 77 77 36
GlifName: M_
Width: 1048
VWidth: 0
Flags: W
LayerCount: 2
Fore
SplineSet
35 820 m 257
 -30 721 l 257
 128 721 l 257
 128 82 l 257
 92.8028182983 82 l 257
 9 152 l 257
 11 82 l 257
 11 -5 l 257
 223 -7 l 257
 211 643 l 257
 513 -4 l 257
 818 647 l 257
 820 1 l 257
 1024 -5 l 257
 1024 82 l 257
 1026 152 l 257
 942 82 l 257
 905 82 l 257
 905 721 l 257
 1013 721 l 257
 1078 820 l 257
 675 820 l 257
 610 721 l 257
 768 721 l 257
 645 429 l 257
 536 197 l 257
 271 717 l 257
 265 721 l 257
 373 721 l 257
 438 820 l 257
 35 820 l 257
EndSplineSet
PickledDataWithLists: "(dp0
Vxyz.fontra.layer-names
p1
(dp2
Vholihai_default/public.default
p3
Vdefault
p4
ss."
EndChar

StartChar: N
Encoding: 78 78 37
GlifName: N_
Width: 929
VWidth: 0
Flags: W
LayerCount: 2
Fore
SplineSet
35 820 m 257
 -30 721 l 257
 128 721 l 257
 128 82 l 257
 92.8028182983 82 l 257
 9 152 l 257
 11 82 l 257
 11 -5 l 257
 223 -7 l 257
 211 643 l 257
 698 -10 l 257
 905 -5 l 257
 905 82 l 257
 907 152 l 257
 823 82 l 257
 786 82 l 257
 786 721 l 257
 894 721 l 257
 959 820 l 257
 556 820 l 257
 491 721 l 257
 689 721 l 257
 696 477 l 257
 703 185 l 257
 271 717 l 257
 265 721 l 257
 373 721 l 257
 438 820 l 257
 35 820 l 257
EndSplineSet
PickledDataWithLists: "(dp0
Vxyz.fontra.layer-names
p1
(dp2
Vholihai_default/public.default
p3
Vdefault
p4
ss."
EndChar

StartChar: O
Encoding: 79 79 38
GlifName: O_
Width: 972
VWidth: 0
Flags: W
LayerCount: 2
Fore
SplineSet
45 820 m 257
 -20 721 l 257
 927 721 l 257
 992 820 l 257
 45 820 l 257
913 385 m 256
 913 600 691 774 502 774 c 256
 313 774 86 598 86 383 c 256
 86 169 313 -4 502 -4 c 256
 691 -4 913 171 913 385 c 256
783 369 m 256
 783 197 631 53 504 53 c 256
 377 53 204 226 204 398 c 256
 204 570 389 718 516 718 c 256
 643 718 783 541 783 369 c 256
EndSplineSet
PickledDataWithLists: "(dp0
Vxyz.fontra.layer-names
p1
(dp2
Vholihai_default/public.default
p3
Vdefault
p4
ss."
EndChar

StartChar: P
Encoding: 80 80 39
GlifName: P_
Width: 734
VWidth: 0
Flags: W
LayerCount: 2
Fore
SplineSet
203 80 m 257
 157 82 l 257
 73 152 l 257
 75 82 l 257
 75 -5 l 257
 204 -7 l 257
 342 -6 l 257
 341 82 l 257
 341 348.628204346 l 257
 369.914337158 336.664306641 402.087921143 330 436 330 c 256
 562 330 666 445.453186035 666 559.5 c 256
 666 624.879882812 632.526123047 683.163208008 580.286132812 721 c 257
 689 721 l 257
 754 820 l 257
 45 820 l 257
 -20 721 l 257
 204 721 l 257
 203 80 l 257
535 555 m 256
 535 471 415 413 350 413 c 256
 346.982696533 413 343.980957031 413.155609131 341 413.460906982 c 257
 341 721 l 257
 410.50793457 721 l 257
 470.152618408 690.724853516 535 619.67791748 535 555 c 256
EndSplineSet
PickledDataWithLists: "(dp0
Vxyz.fontra.layer-names
p1
(dp2
Vholihai_default/public.default
p3
Vdefault
p4
ss."
EndChar

StartChar: Q
Encoding: 81 81 40
GlifName: Q_
Width: 972
VWidth: 0
Flags: W
LayerCount: 2
Fore
SplineSet
45 820 m 257
 -20 721 l 257
 311.224365234 721 l 257
 187.476699829 653.066223145 86 526.750305176 86 383 c 256
 86 169 313 -4 502 -4 c 256
 534.358398438 -4 567.684143066 1.12966442108 600.69744873 10.7064743042 c 257
 731 -150 l 257
 901 -155 l 257
 903 2 l 257
 819 -68 l 257
 782 -68 l 257
 686.957763672 46.2334823608 l 257
 811.295288086 113.174133301 913 240.153533936 913 385 c 256
 913 528.385803223 814.261108398 653.536010742 692.421813965 721 c 257
 927 721 l 257
 992 820 l 257
 45 820 l 257
783 369 m 256
 783 257.931213379 719.61730957 158.538208008 640.513000488 102.056465149 c 257
 574 182 l 257
 461 183 l 257
 559.514160156 61.4992332458 l 257
 540.843261719 55.9462394714 522.165893555 53 504 53 c 256
 377 53 204 226 204 398 c 256
 204 570 389 718 516 718 c 256
 643 718 783 541 783 369 c 256
EndSplineSet
PickledDataWithLists: "(dp0
Vxyz.fontra.layer-names
p1
(dp2
Vholihai_default/public.default
p3
Vdefault
p4
ss."
EndChar

StartChar: R
Encoding: 82 82 41
GlifName: R_
Width: 772
VWidth: 0
Flags: W
LayerCount: 2
Fore
SplineSet
203 80 m 257
 157 82 l 257
 73 152 l 257
 75 82 l 257
 75 -5 l 257
 204 -7 l 257
 342 -6 l 257
 341 82 l 257
 341 343.081268311 l 257
 620 0 l 257
 790 -5 l 257
 792 152 l 257
 708 82 l 257
 671 82 l 257
 463.006896973 331.773376465 l 257
 576.522888184 346.72076416 666 453.715393066 666 559.5 c 256
 666 624.879882812 632.526123047 683.163208008 580.286132812 721 c 257
 689 721 l 257
 754 820 l 257
 45 820 l 257
 -20 721 l 257
 204 721 l 257
 203 80 l 257
535 555 m 256
 535 471 415 413 350 413 c 256
 346.982696533 413 343.980957031 413.155609131 341 413.460906982 c 257
 341 721 l 257
 410.50793457 721 l 257
 470.152618408 690.724853516 535 619.67791748 535 555 c 256
341 348.34286499 m 257
 341 348.628204346 l 257
 341.190856934 348.549224854 341.381866455 348.470489502 341.573028564 348.391967773 c 257
 341 348.34286499 l 257
EndSplineSet
PickledDataWithLists: "(dp0
Vxyz.fontra.layer-names
p1
(dp2
Vholihai_default/public.default
p3
Vdefault
p4
ss."
EndChar

StartChar: S
Encoding: 83 83 42
GlifName: S_
Width: 672
VWidth: 0
Flags: W
LayerCount: 2
Fore
SplineSet
45 820 m 257
 -20 721 l 257
 152.344802856 721 l 257
 125.877189636 695.688232422 108.706550598 664.424072266 103 631 c 256
 77 475 241 361 255 357 c 257
 257 357 490 234 490 173 c 256
 490 113 381 25 295 25 c 256
 240.64453125 25 181.745407104 52.8299369812 140.699661255 78.526184082 c 257
 132 95 l 257
 48 165 l 257
 50 95 l 257
 50 8 l 257
 155.82767454 6.35926075732 259.963280609 -10 366 -10 c 256
 498 -10 640 169 603 258 c 256
 586 299 399 424 389 430 c 256
 331 465 187 565 187 621 c 256
 187 669.430847168 227.428039551 709.920471191 281.294616699 721 c 257
 336.138244629 721 l 257
 406.346679688 705.64239502 504 634.583312988 504 584 c 256
 504 573.676086426 490 579 494 575 c 257
 516 543 l 257
 560 581 539.821463271 678.284846882 494.123687744 721 c 257
 627 721 l 257
 692 820 l 257
 45 820 l 257
88.4068603516 119.111503601 m 257
 87.5368270874 120.503486633 87.6945419312 121.18649292 89 121 c 257
 88.8017349243 120.366661072 88.604019165 119.737174988 88.4068603516 119.111503601 c 257
EndSplineSet
PickledDataWithLists: "(dp0
Vxyz.fontra.layer-names
p1
(dp2
Vholihai_default/public.default
p3
Vdefault
p4
ss."
EndChar

StartChar: T
Encoding: 84 84 43
GlifName: T_
Width: 772
VWidth: 0
Flags: W
LayerCount: 2
Fore
SplineSet
598 -5 m 257
 598 82 l 257
 600 152 l 257
 516 82 l 257
 479 82 l 257
 479 721 l 257
 727 721 l 257
 792 820 l 257
 45 820 l 257
 -20 721 l 257
 342 721 l 257
 341 80 l 257
 339 82 l 257
 304 82 l 257
 220 152 l 257
 222 82 l 257
 222 -5 l 257
 598 -5 l 257
EndSplineSet
PickledDataWithLists: "(dp0
Vxyz.fontra.layer-names
p1
(dp2
Vholihai_default/public.default
p3
Vdefault
p4
ss."
EndChar

StartChar: U
Encoding: 85 85 44
GlifName: U_
Width: 945
VWidth: 0
Flags: W
LayerCount: 2
Fore
SplineSet
271 176 m 257
 275 721 l 257
 383 721 l 257
 448 820 l 257
 45 820 l 257
 -20 721 l 257
 138 721 l 257
 145 191 l 257
 152 150 168 109 169 111 c 256
 170 114 253 -8 404 -8 c 256
 548 -8 691.228942871 68.2990875244 701.302001953 152.314788818 c 257
 702 152 l 257
 714 207 l 257
 725 721 l 257
 900 721 l 257
 965 820 l 257
 562 820 l 257
 497 721 l 257
 655 721 l 257
 651.012268066 176.67515564 l 257
 650.391967773 173.985198975 650 172.208694458 650 172 c 256
 650 111.800964355 576 56 468 56 c 256
 360 56 273 104 273 165 c 256
 273 169.904860702 270 176 271 176 c 257
EndSplineSet
PickledDataWithLists: "(dp0
Vxyz.fontra.layer-names
p1
(dp2
Vholihai_default/public.default
p3
Vdefault
p4
ss."
EndChar

StartChar: V
Encoding: 86 86 45
GlifName: V_
Width: 942
VWidth: 0
Flags: W
LayerCount: 2
Fore
SplineSet
42 820 m 257
 -23 721 l 257
 78 717 l 257
 377 -8 l 257
 411 -9 l 257
 723 721 l 257
 897 721 l 257
 962 820 l 257
 559 820 l 257
 494 721 l 257
 652 721 l 257
 645 719 l 257
 421 143 l 257
 208 717 l 257
 380 721 l 257
 445 820 l 257
 42 820 l 257
EndSplineSet
PickledDataWithLists: "(dp0
Vxyz.fontra.layer-names
p1
(dp2
Vholihai_default/public.default
p3
Vdefault
p4
ss."
EndChar

StartChar: W
Encoding: 87 87 46
GlifName: W_
Width: 1370
VWidth: 0
Flags: W
LayerCount: 2
Fore
SplineSet
42 820 m 257
 -23 721 l 257
 78 717 l 257
 353 -8 l 257
 387 -9 l 257
 591 552 l 257
 805 -8 l 257
 839 -9 l 257
 1151 721 l 257
 1325 721 l 257
 1390 820 l 257
 993 820 l 257
 928 721 l 257
 1080 721 l 257
 1073 719 l 257
 849 143 l 257
 676 724 l 257
 764 721 l 257
 829 820 l 257
 515 820 l 257
 450 721 l 257
 513 721 l 257
 523 717 l 257
 558 636 l 257
 386 150 l 257
 208 717 l 257
 380 721 l 257
 445 820 l 257
 42 820 l 257
EndSplineSet
PickledDataWithLists: "(dp0
Vxyz.fontra.layer-names
p1
(dp2
Vholihai_default/public.default
p3
Vdefault
p4
ss."
EndChar

StartChar: X
Encoding: 88 88 47
GlifName: X_
Width: 942
VWidth: 0
Flags: W
LayerCount: 2
Fore
SplineSet
42 820 m 257
 -23 721 l 257
 118 721 l 257
 361 387 l 257
 122 76 l 257
 99.8028182983 82 l 257
 16 152 l 257
 18 82 l 257
 18 -5 l 257
 143 -2 l 257
 394 340 l 257
 612 1 l 257
 838 -5 l 257
 838 82 l 257
 840 152 l 257
 756 82 l 257
 716 75 l 257
 465 423 l 257
 707 718 l 257
 897 721 l 257
 962 820 l 257
 559 820 l 257
 494 721 l 257
 652 721 l 257
 432 465 l 257
 272 721 l 257
 380 721 l 257
 445 820 l 257
 42 820 l 257
EndSplineSet
PickledDataWithLists: "(dp0
Vxyz.fontra.layer-names
p1
(dp2
Vholihai_default/public.default
p3
Vdefault
p4
ss."
EndChar

StartChar: Y
Encoding: 89 89 48
GlifName: Y_
Width: 945
VWidth: 0
Flags: W
LayerCount: 2
Fore
SplineSet
483 319 m 257
 710 718 l 257
 900 721 l 257
 965 820 l 257
 562 820 l 257
 497 721 l 257
 655 721 l 257
 449 375 l 257
 275 721 l 257
 383 721 l 257
 448 820 l 257
 45 820 l 257
 -20 721 l 257
 121 721 l 257
 363 344 l 257
 362 80 l 257
 316 82 l 257
 232 152 l 257
 234 82 l 257
 234 -5 l 257
 363 -7 l 257
 619 -5 l 257
 619 82 l 257
 621 152 l 257
 537 82 l 257
 481 87 l 257
 483 319 l 257
EndSplineSet
PickledDataWithLists: "(dp0
Vxyz.fontra.layer-names
p1
(dp2
Vholihai_default/public.default
p3
Vdefault
p4
ss."
EndChar

StartChar: Z
Encoding: 90 90 49
GlifName: Z_
Width: 753
VWidth: 0
Flags: W
LayerCount: 2
Fore
SplineSet
50 80 m 257
 51 -7 l 257
 687 -5 l 257
 687 82 l 257
 689 152 l 257
 605 82 l 257
 199 79 l 257
 671 721 l 257
 708 721 l 257
 773 820 l 257
 45 820 l 257
 -20 721 l 257
 541 721 l 257
 50 80 l 257
EndSplineSet
PickledDataWithLists: "(dp0
Vxyz.fontra.layer-names
p1
(dp2
Vholihai_default/public.default
p3
Vdefault
p4
ss."
EndChar

StartChar: asterisk
Encoding: 42 42 50
GlifName: asterisk
Width: 500
VWidth: 0
Flags: W
LayerCount: 2
Fore
SplineSet
315 325 m 256
 315 348 427 376 421 396 c 256
 414 419 316 349 304 367 c 256
 276 407 325 468 279 468 c 256
 245 468 294 392 262 380 c 256
 213 361 152 445 141 417 c 256
 131 392 234 381 226 349 c 256
 218 319 122 274 132 259 c 256
 146 238 231 334 257 313 c 256
 297 280 228 142 277.5 142 c 256
 303 142 269 278 290 291 c 256
 312 305 389 198 403 224 c 256
 420 255 315 285 315 325 c 256
EndSplineSet
PickledDataWithLists: "(dp0
Vxyz.fontra.layer-names
p1
(dp2
Vholihai_default/public.default
p3
Vdefault
p4
ss."
EndChar

